<?xml version="1.0" encoding="utf-8"?>
<!-- Generator: Adobe Illustrator 25.4.1, SVG Export Plug-In . SVG Version: 6.00 Build 0)  -->
<svg id="Calque_1" style="enable-background:new 0 0 330 210;" version="1.1" viewBox="0 0 330 210" x="0px"
     xml:space="preserve" xmlns="http://www.w3.org/2000/svg" y="0px">
<style type="text/css">
	.st0 {
    fill: #34338A;
  }

  .st1 {
    fill: #54ABB0;
  }
</style>
  <path class="st0" d="M208.8,72.5c-4.4,0-8.8,0.9-12.9,2.7v14.8c3.4-2.9,7.8-4.6,12.3-4.7c4.5-0.1,8.9,1.3,12.5,4
	c3.6,2.7,6.2,6.6,7.2,10.9c1.1,4.4,0.7,9-1.2,13c-1.9,4.1-5.1,7.4-9.2,9.4s-8.6,2.6-13,1.6c-4.4-1-8.3-3.4-11.2-6.9
	c-2.8-3.5-4.4-7.9-4.4-12.4c0-0.6,0-1.2,0.1-1.8h-0.1v-24V36h-12.8v69c0,6.4,1.9,12.7,5.5,18c3.6,5.3,8.7,9.5,14.6,12
	c6,2.5,12.5,3.1,18.8,1.8c6.3-1.3,12.1-4.3,16.7-8.9c4.6-4.5,7.7-10.3,8.9-16.6c1.3-6.3,0.6-12.8-1.9-18.8c-2.5-5.9-6.6-11-12-14.6
	C221.6,74.5,215.3,72.5,208.8,72.5z"/>
  <path class="st0" d="M279.4,72.5c-8.5,0-16.6,3.3-22.7,9.2c-6.1,5.9-9.6,13.9-9.9,22.3v69h12.8v-42.2V105c0-0.3,0-0.7,0.1-1
	c0.2-4.5,2-8.7,4.9-12.1c3-3.4,7-5.6,11.4-6.4c4.4-0.8,9-0.1,12.9,2.1c3.9,2.1,7,5.5,8.8,9.6c1.8,4.1,2.1,8.7,0.9,13
	c-1.2,4.3-3.8,8.1-7.4,10.7c-3.6,2.6-8,4-12.5,3.8c-4.5-0.2-8.8-1.9-12.1-4.8v14.9c4.4,1.9,9.3,2.8,14.1,2.7
	c4.8-0.2,9.6-1.4,13.9-3.6c4.3-2.2,8-5.4,11-9.2c2.9-3.8,4.9-8.3,5.9-13c1-4.7,0.9-9.6-0.3-14.3c-1.1-4.7-3.3-9.1-6.4-12.8
	c-3.1-3.7-6.9-6.8-11.3-8.8S284.3,72.5,279.4,72.5L279.4,72.5z"/>
  <path class="st0" d="M147.8,124.5c-3.4,0.2-6.8-0.5-9.8-1.9c-3.1-1.5-5.7-3.7-7.6-6.5c-1.9-2.8-3.1-6-3.5-9.4
	c-0.3-3.4,0.2-6.8,1.6-9.9c1.4-3.1,3.5-5.8,6.2-7.8c2.7-2,5.9-3.3,9.3-3.8c3.4-0.4,6.8,0,9.9,1.3c3.2,1.3,5.9,3.3,8.1,5.9l8.6-9.6
	c-4.5-4.8-10.3-8.2-16.8-9.7c-6.4-1.5-13.2-0.9-19.3,1.5c-6.1,2.4-11.4,6.7-15,12.2c-3.7,5.5-5.6,11.9-5.4,18.5s2.2,13,6.1,18.3
	c3.8,5.4,9.2,9.4,15.5,11.7c6.2,2.2,13,2.5,19.4,0.9c6.4-1.7,12.1-5.3,16.4-10.2l-9.6-8.4c-1.7,2-3.9,3.7-6.2,4.9
	C153.1,123.6,150.5,124.3,147.8,124.5z"/>
  <path class="st1" d="M56.1,137.5c-7.2,0-14.3-2-20.3-5.9c-6.1-3.8-11-9.3-14.1-15.8c-3.1-6.5-4.3-13.7-3.4-20.8
	c0.9-7.1,3.7-13.9,8.3-19.4c0.4-0.5,0.8-0.9,1.2-1.4l8.3,7.4c-0.3,0.3-0.6,0.7-0.9,1c-3.9,4.8-6.1,10.8-6,17c0,4.4,1.1,8.7,3.1,12.5
	c2,3.9,5,7.2,8.6,9.7c3.6,2.5,7.8,4,12.1,4.6c4.4,0.5,8.8,0,12.9-1.6s7.7-4.1,10.6-7.4c2.9-3.3,4.9-7.2,6-11.5c1-4.3,1-8.7-0.1-12.9
	c-1.1-4.2-3.2-8.1-6.1-11.4l8.2-7.4c4.9,5.5,8.2,12.2,9.3,19.5c1.2,7.2,0.2,14.7-2.8,21.4c-3,6.7-7.9,12.4-14.1,16.4
	C70.7,135.3,63.5,137.5,56.1,137.5L56.1,137.5z"/>
  <path class="st1" d="M41.1,112.7c-2.6-2.9-4.3-6.4-4.9-10.2c-0.6-3.8-0.1-7.7,1.4-11.3c1.5-3.5,4.1-6.6,7.3-8.7
	c3.2-2.2,7-3.4,10.8-3.5c3.9-0.1,7.7,0.9,11,2.9c3.3,2,6,4.9,7.7,8.4c1.7,3.5,2.4,7.3,2,11.2c-0.4,3.8-2,7.5-4.4,10.5
	c-0.2,0.3-0.4,0.5-0.7,0.8l-6.9-6.2l0.3-0.4c1.6-2,2.5-4.4,2.5-6.9c0-1.7-0.4-3.4-1.1-4.9c-0.8-1.5-1.9-2.8-3.2-3.9
	c-1.4-1-2.9-1.7-4.6-2c-1.7-0.3-3.4-0.2-5,0.2c-1.6,0.5-3.2,1.3-4.4,2.4c-1.3,1.1-2.3,2.5-2.9,4.1c-0.6,1.6-0.9,3.3-0.7,5
	c0.1,1.7,0.7,3.3,1.6,4.8c0.4,0.6,0.8,1.2,1.3,1.7L41.1,112.7z"/>
</svg>
